<?xml version="1.0" encoding="utf-8"?>
<!-- Generator: Adobe Illustrator 27.5.0, SVG Export Plug-In . SVG Version: 6.00 Build 0)  -->
<svg version="1.1" xmlns="http://www.w3.org/2000/svg" xmlns:xlink="http://www.w3.org/1999/xlink" x="0px" y="0px"
	 viewBox="0 0 2000 2000" style="enable-background:new 0 0 2000 2000;" xml:space="preserve">
<g id="BACKGROUND">
	<rect style="fill:#FFFFFF;" width="2000" height="2000"/>
</g>
<g id="OBJECTS">
	<path style="fill:#06193F;" d="M297.16,816.544"/>
	<path style="fill:#06193F;" d="M1445.213,867.617c-19.658-53.357-33.699-70.207-33.699-70.207s3.348-9.5,3.076-23.758
		c0.049-0.192,0.103-0.372,0.151-0.567c1.299-5.914,1.78-13.366,0.718-21.657c-1.04-8.288-3.591-17.367-7.759-26.512
		c-4.132-9.176-10.015-18.298-17.359-27.011c-7.269-8.475-15.784-16.327-24.944-23.358c-18.328-14.145-38.954-25.084-57.867-36.066
		c-9.484-5.51-18.615-11.103-27-17.111c-4.177-3.012-8.218-6.09-11.975-9.321c-3.749-3.236-7.294-6.572-10.559-10.038
		c-1.568-1.768-3.227-3.486-4.627-5.315c-0.732-0.903-1.46-1.802-2.184-2.696c-0.727-0.897-1.348-1.863-2.029-2.785
		c-0.661-0.935-1.345-1.854-1.99-2.792c-0.607-0.964-1.211-1.923-1.811-2.876c-1.261-1.883-2.306-3.859-3.384-5.8
		c-4.238-7.797-7.346-15.787-9.491-23.428c-2.154-7.646-3.347-14.937-3.977-21.484c-0.109-1.643-0.214-3.233-0.316-4.768
		c-0.068-0.772-0.094-1.529-0.087-2.27c-0.007-0.744-0.015-1.474-0.022-2.189c0.01-1.43-0.086-2.822,0.008-4.131
		c0.061-1.319,0.12-2.576,0.175-3.769c0.027-0.6,0.054-1.184,0.079-1.751c0.057-0.563,0.112-1.11,0.165-1.641
		c0.111-1.065,0.215-2.063,0.312-2.992c0.153-1.874,0.436-3.439,0.647-4.716c0.416-2.568,0.638-3.937,0.638-3.937
		s-0.561,1.277-1.612,3.672c-0.529,1.203-1.203,2.689-1.815,4.496c-0.326,0.902-0.677,1.872-1.052,2.906
		c-0.185,0.521-0.375,1.058-0.572,1.611c-0.165,0.561-0.335,1.139-0.509,1.732c-0.349,1.195-0.717,2.454-1.102,3.775
		c-0.417,1.323-0.658,2.737-1.017,4.207c-0.167,0.738-0.337,1.491-0.51,2.259c-0.187,0.769-0.344,1.557-0.462,2.363
		c-0.265,1.621-0.54,3.299-0.824,5.034c-0.923,6.975-1.414,15.015-0.872,23.86c0.538,8.836,2.108,18.474,5.186,28.421
		c0.789,2.478,1.567,5.018,2.593,7.5c0.49,1.256,0.983,2.52,1.479,3.792c0.543,1.252,1.134,2.493,1.71,3.755
		c0.596,1.251,1.138,2.547,1.8,3.786c0.046,0.086,0.093,0.173,0.14,0.259c-46.445-41.749-49.225-97.851-54.238-120.407
		c-30.891,106.715,67.399,168.497,67.399,168.497s-21.565,3.321-50.668,27.803c-0.303-2.088-0.631-4.182-0.993-6.285
		c-0.679-3.928-1.435-7.908-2.292-11.885c-0.423-1.994-0.869-3.991-1.331-5.993c-0.457-1.943-0.919-3.904-1.384-5.881
		c-1.848-7.726-3.8-15.685-5.827-23.829c-4.046-16.294-8.392-33.364-12.679-50.962c-8.523-35.187-16.678-72.552-21.185-110.136
		c-2.253-18.784-3.621-37.615-3.764-56.151c-0.144-18.413,1.071-36.596,3.462-54.075c1.227-8.732,2.755-17.283,4.544-25.6
		c0.869-4.167,1.89-8.246,2.875-12.294c1.08-4.013,2.12-7.999,3.309-11.877c2.329-7.774,4.831-15.288,7.619-22.414
		c2.764-7.137,5.658-13.968,8.769-20.368c12.258-25.75,26.787-45.102,38.066-57.589c0.702-0.788,1.384-1.556,2.048-2.301
		c0.689-0.721,1.357-1.422,2.006-2.101c1.303-1.359,2.525-2.633,3.662-3.818c2.36-2.278,4.335-4.274,6.005-5.814
		c3.369-3.063,5.165-4.696,5.165-4.696s-2.07,1.29-5.952,3.709c-1.934,1.23-4.243,2.855-7.013,4.723
		c-1.358,0.966-2.789,2.043-4.336,3.176c-0.772,0.57-1.568,1.159-2.387,1.764c-0.797,0.634-1.617,1.286-2.46,1.956
		c-6.774,5.338-14.719,12.284-23.107,21.088c-8.37,8.805-17.277,19.41-25.758,31.944c-4.303,6.229-8.443,12.962-12.489,20.089
		c-4.072,7.119-7.89,14.705-11.551,22.647c-1.855,3.964-3.564,8.052-5.316,12.198c-1.655,4.174-3.348,8.408-4.887,12.749
		c-3.13,8.666-5.991,17.66-8.526,26.927c-5.004,18.543-8.729,38.174-10.824,58.38c-0.297,2.863-0.557,5.738-0.795,8.618
		c-0.142,0.149-0.277,0.291-0.424,0.445c-1.375,1.47-3.033,3.132-4.776,5.103c-0.834,1.018-1.712,2.091-2.633,3.216
		c-0.906,1.142-1.946,2.298-2.828,3.623c-1.831,2.612-3.936,5.424-5.797,8.657c-0.487,0.802-0.983,1.616-1.485,2.443
		c-0.251,0.416-0.503,0.836-0.758,1.258c-0.229,0.434-0.459,0.87-0.692,1.31c-0.931,1.775-1.888,3.602-2.871,5.476
		c-1.767,3.833-3.692,7.91-5.274,12.318c-3.314,8.778-6.1,18.684-7.983,29.425c-1.888,10.739-2.883,22.302-2.771,34.336
		c0.212,24.055,4.753,49.344,11.417,73.353c6.673,24.016,15.157,46.83,22.988,67.352c5.167,13.379,10.1,26.153,14.648,37.933
		c-2.52-3.083-5.054-6.129-7.573-9.12c-6.159-7.324-12.251-14.469-17.91-21.586c-5.605-7.114-10.687-14.235-15.014-21.474
		c-0.533-0.908-1.065-1.814-1.596-2.718l-0.805-1.358c-0.255-0.454-0.469-0.913-0.707-1.37c-0.469-0.916-0.938-1.829-1.404-2.741
		c-0.46-0.917-0.981-1.812-1.361-2.762c-0.808-1.88-1.686-3.74-2.469-5.629c-0.727-1.922-1.448-3.83-2.163-5.723
		c-2.645-7.688-4.467-15.513-5.587-23.122c-0.64-3.807-0.881-7.557-1.198-11.223c-0.067-1.838-0.133-3.645-0.198-5.419
		c-0.054-0.895-0.045-1.776-0.019-2.648c0.015-0.876,0.03-1.744,0.045-2.603c-0.035-3.464,0.354-6.739,0.532-9.927
		c0.162-1.576,0.384-3.103,0.563-4.605c0.195-1.498,0.335-2.977,0.628-4.366c0.943-5.633,2.117-10.54,3.259-14.55
		c0.603-2.007,1.141-3.799,1.609-5.358c0.557-1.534,1.03-2.839,1.414-3.898c0.773-2.138,1.186-3.279,1.186-3.279
		s-0.796,0.927-2.289,2.664c-0.747,0.884-1.669,1.975-2.753,3.257c-1.004,1.353-2.158,2.907-3.451,4.649
		c-2.532,3.545-5.424,8.034-8.347,13.495c-0.788,1.347-1.438,2.797-2.158,4.285c-0.703,1.492-1.464,3.029-2.177,4.635
		c-1.279,3.244-2.818,6.666-3.96,10.376c-0.308,0.927-0.619,1.863-0.933,2.808c-0.324,0.948-0.631,1.91-0.877,2.894
		c-0.527,1.977-1.064,3.99-1.61,6.039c-0.892,4.139-1.862,8.481-2.407,13.015c-1.248,9.06-1.691,18.879-0.916,29.128
		c0.279,2.562,0.56,5.146,0.843,7.747c0.372,2.599,0.869,5.206,1.33,7.856c0.206,1.332,0.564,2.629,0.87,3.949
		c0.322,1.32,0.645,2.643,0.969,3.97c0.169,0.662,0.32,1.339,0.507,1.992l0.599,1.94c0.407,1.298,0.815,2.599,1.224,3.903
		c3.378,10.387,7.859,20.44,12.832,29.856c10.006,18.75,21.531,35.254,30.849,49.699c0.592,0.887,1.165,1.765,1.726,2.635
		c-13.251-12.166-27.034-24.047-40.046-36.198c-17.948-16.704-35.238-34.244-50.797-51.406c-3.886-4.28-7.701-8.573-11.298-12.722
		c-3.596-4.158-6.964-8.231-10.013-12.281c-6.116-8.085-10.958-16.106-14.094-24.01c-1.589-3.98-2.709-7.76-3.426-11.545
		c-0.721-3.769-1.063-7.452-1.02-10.909c0.038-3.453,0.294-6.725,0.906-9.665c0.217-1.504,0.669-2.862,0.977-4.224
		c0.429-1.303,0.802-2.582,1.265-3.744c1.838-4.662,4.014-8.063,5.732-10.174c0.394-0.566,0.797-1.013,1.151-1.395
		c0.35-0.39,0.644-0.718,0.882-0.982c0.476-0.533,0.722-0.808,0.722-0.808s-0.304,0.208-0.894,0.612
		c-0.297,0.204-0.666,0.457-1.105,0.757c-0.447,0.296-0.959,0.648-1.482,1.115c-0.544,0.453-1.151,0.959-1.819,1.516
		c-0.641,0.591-1.297,1.282-2.04,2.015c-1.436,1.503-2.971,3.372-4.51,5.639c-0.774,1.13-1.477,2.394-2.256,3.715
		c-0.654,1.37-1.475,2.778-2.07,4.348c-1.372,3.087-2.437,6.615-3.296,10.484c-0.862,3.873-1.35,8.116-1.409,12.642
		c-0.071,4.518,0.365,9.37,1.296,14.268c1.013,5.456,2.672,11.051,4.809,16.671c-7.61-6.821-15.299-13.731-23.072-20.738
		l-1.654-2.294l-1.614-2.407c-1.076-1.605-2.149-3.204-3.217-4.797c-1.008-1.627-2.013-3.247-3.013-4.861l-1.499-2.421
		c-0.465-0.821-0.93-1.64-1.393-2.457c-0.932-1.637-1.859-3.266-2.782-4.887c-0.853-1.654-1.701-3.301-2.545-4.939
		c-0.424-0.82-0.848-1.639-1.27-2.455c-0.405-0.823-0.771-1.657-1.159-2.482c-0.768-1.656-1.531-3.302-2.29-4.939
		c-0.735-1.647-1.37-3.316-2.059-4.961c-1.428-3.279-2.522-6.608-3.701-9.881c-4.575-13.103-6.944-26.205-7.986-38.209
		c-0.822-11.932,0.39-23.095,2.918-32.517c2.509-9.45,6.38-17.151,10.521-22.76c2.06-2.818,4.169-5.133,6.134-7.02
		c1.987-1.861,3.816-3.307,5.361-4.401c1.552-1.08,2.788-1.865,3.649-2.339c0.855-0.493,1.296-0.748,1.296-0.748
		s-0.48,0.175-1.41,0.513c-0.941,0.322-2.302,0.887-4.056,1.708c-1.747,0.836-3.857,1.987-6.232,3.566
		c-2.351,1.606-4.955,3.655-7.615,6.278c-5.338,5.212-10.827,12.825-15.099,22.646c-4.288,9.801-7.419,21.727-8.393,35.125
		c-0.273,3.369-0.238,6.751-0.279,10.225c-0.007,0.87-0.014,1.743-0.021,2.621c0.006,0.877,0.074,1.753,0.109,2.637
		c0.088,1.771,0.176,3.557,0.265,5.358c0.048,1.813,0.301,3.609,0.479,5.438c0.196,1.83,0.394,3.675,0.593,5.533
		c0.295,1.844,0.593,3.703,0.892,5.574c0.315,1.872,0.571,3.78,1.015,5.649c0.626,2.878,1.218,5.812,1.953,8.734
		c-11.653-10.87-23.137-21.939-34.191-33.321c-17.083-17.603-33.093-35.996-46.892-55.312
		c-13.792-19.302-25.198-39.62-33.205-60.435c-4.002-10.402-7.166-20.915-9.402-31.408c-0.5-2.631-1.041-5.246-1.512-7.86
		c-0.374-2.63-0.745-5.245-1.114-7.845c-0.188-1.302-0.375-2.601-0.561-3.896c-0.135-1.301-0.216-2.605-0.327-3.903
		c-0.212-2.6-0.422-5.183-0.632-7.749c-1.152-20.612,0.755-40.437,3.863-58.577c3.144-18.161,7.563-34.674,11.997-49.182
		c2.167-7.274,4.51-14.003,6.601-20.255c2.233-6.206,4.211-11.941,6.188-17.061c0.966-2.569,1.879-5,2.739-7.288
		c0.892-2.278,1.728-4.413,2.506-6.4c1.55-3.977,2.88-7.359,3.997-10.087c2.205-5.469,3.38-8.386,3.38-8.386
		s-1.495,2.771-4.298,7.966c-1.414,2.594-3.108,5.814-5.085,9.612c-0.991,1.898-2.055,3.939-3.191,6.115
		c-1.104,2.193-2.276,4.523-3.515,6.985c-2.521,4.91-5.107,10.438-7.998,16.439c-2.753,6.057-5.808,12.59-8.746,19.719
		c-5.969,14.215-12.148,30.575-17.208,49.082c-0.626,2.318-1.258,4.659-1.896,7.024c-0.542,2.393-1.089,4.811-1.642,7.251
		c-0.521,2.449-1.158,4.905-1.597,7.423c-0.441,2.522-0.885,5.066-1.334,7.632c-0.223,1.286-0.448,2.577-0.673,3.874
		c-0.204,1.3-0.334,2.617-0.505,3.935c-0.321,2.643-0.645,5.306-0.972,7.99l-0.236,2.022l-0.137,2.039
		c-0.091,1.364-0.181,2.732-0.273,4.106c-0.153,2.75-0.425,5.522-0.478,8.323c-0.02,2.806-0.04,5.632-0.06,8.475
		c-0.001,1.424-0.033,2.855-0.007,4.289c0.078,1.433,0.157,2.871,0.235,4.314c0.163,2.892,0.326,5.802,0.491,8.729
		c0.27,2.919,0.617,5.85,0.931,8.807c1.49,11.79,4.032,23.728,7.539,35.592c4.962,16.81,11.894,33.416,20.301,49.471
		c-21.848-24.105-38.825-47.011-48.293-67.841C667.32,289.112,734.719,92.532,790.884,58.833
		C602.729,89.724,622.387,362.127,672.937,477.267c49.517,112.79,224.662,213.429,224.662,213.429s-30.891,47.741-165.689-92.673
		S625.196,258.221,625.196,258.221s-44.932,146.03-11.233,303.294c33.699,157.264,255.553,241.512,255.553,241.512
		s-106.715-14.041-199.388-101.098c-92.673-87.057-73.015-261.17-73.015-261.17s-47.741,106.715-8.425,233.087
		c39.316,126.373,182.538,190.963,210.621,196.58c-45.36-6.256-81.562-20.358-110.326-37.626
		c-6.481-4.994-12.818-10.195-18.961-15.607c-6.948-6.25-13.665-12.735-20.091-19.432c-6.356-6.759-12.48-13.67-18.238-20.766
		c-1.452-1.764-2.823-3.582-4.236-5.363l-2.102-2.678l-2.024-2.723c-1.344-1.818-2.682-3.629-4.016-5.433
		c-1.288-1.839-2.572-3.671-3.849-5.496c-5.045-7.348-9.817-14.735-14.136-22.188c-4.405-7.408-8.348-14.879-12.042-22.24
		c-7.289-14.77-13.236-29.26-17.951-42.944c-4.679-13.697-8.151-26.569-10.72-38.117c-2.596-11.548-4.153-21.783-5.293-30.243
		c-0.524-4.235-1.008-8.024-1.272-11.334c-0.311-3.307-0.596-6.126-0.71-8.416c-0.3-4.584-0.46-7.029-0.46-7.029
		s-0.191,2.448-0.55,7.039c-0.211,2.3-0.324,5.138-0.475,8.483c-0.197,3.348-0.239,7.195-0.293,11.519
		c-0.017,8.636,0.168,19.176,1.279,31.243c1.085,12.065,2.962,25.674,6.06,40.381c3.135,14.692,7.52,30.465,13.407,46.796
		c2.993,8.141,6.276,16.461,10.078,24.782c3.717,8.365,7.946,16.729,12.524,25.108c1.167,2.085,2.338,4.178,3.514,6.279
		c1.232,2.071,2.469,4.15,3.711,6.237c0.626,1.042,1.254,2.086,1.883,3.131l1.97,3.091c0.473,0.733,0.941,1.474,1.411,2.213
		c82.532,202.264,295.816,165.581,295.816,165.581S840.867,983,765.764,965.298c-22.407-9.057-44.76-19.733-65.966-32.371
		c-16.381-9.742-32.058-20.621-46.548-32.51c-3.563-3.044-7.112-6.075-10.643-9.091c-1.707-1.559-3.41-3.115-5.108-4.666
		c-1.664-1.592-3.323-3.18-4.976-4.763c-6.547-6.411-12.738-13.057-18.543-19.857c-23.305-27.181-40.052-56.912-50.245-83.998
		c-5.071-13.559-8.724-26.42-11.031-38.031c-2.354-11.606-3.543-21.925-4.107-30.46c-0.327-4.27-0.376-8.093-0.482-11.428
		c-0.006-3.33,0.008-6.172,0.046-8.476c0.184-4.61,0.281-7.068,0.281-7.068s-0.448,2.428-1.288,6.981
		c-0.362,2.287-0.776,5.118-1.234,8.461c-0.358,3.348-0.838,7.207-1.094,11.555c-0.601,8.69-0.797,19.337,0.082,31.566
		c0.833,12.23,2.923,26.006,6.507,40.813c6.992,28.657,20.465,61.08,41.446,92.03c17.048,42.835,52.834,98.598,127.816,136.855
		c93.394,47.65,180.312,38.382,247.599,31.897c-16.131,4.034-33.1,7.917-50.953,10.892c-35.725,5.848-74.533,8.945-113.391,7.225
		c-19.421-0.781-38.835-2.594-57.846-5.378c-4.743-0.772-9.467-1.542-14.167-2.307c-4.69-0.837-9.328-1.816-13.964-2.703
		c-4.652-0.831-9.184-2.022-13.736-3.033c-2.273-0.523-4.537-1.044-6.793-1.563c-2.215-0.571-4.421-1.14-6.618-1.706
		c-17.53-4.713-34.136-10.654-49.279-17.565c-15.156-6.893-28.792-14.847-40.513-23.353c-5.866-4.247-11.258-8.634-16.085-13.122
		c-4.82-4.489-9.24-8.952-12.999-13.473c-0.987-1.097-1.875-2.237-2.756-3.354c-0.872-1.123-1.785-2.196-2.587-3.31
		c-1.593-2.236-3.215-4.354-4.56-6.519c-0.697-1.071-1.379-2.121-2.047-3.149c-0.619-1.057-1.225-2.091-1.816-3.101
		c-1.235-2.002-2.206-4.014-3.203-5.896c-3.848-7.596-6.066-13.976-7.482-18.351c-0.682-2.196-1.103-3.913-1.438-5.058
		c-0.32-1.151-0.485-1.744-0.485-1.744s0.078,0.611,0.229,1.795c0.168,1.182,0.343,2.956,0.713,5.249
		c0.796,4.569,2.122,11.304,5.004,19.611c0.756,2.059,1.482,4.272,2.472,6.496c0.473,1.125,0.956,2.277,1.45,3.454
		c0.549,1.154,1.11,2.332,1.683,3.536c1.106,2.438,2.488,4.847,3.855,7.404c0.689,1.275,1.488,2.51,2.25,3.805
		c0.772,1.289,1.553,2.606,2.434,3.884c3.341,5.253,7.382,10.529,11.89,15.908c4.515,5.378,9.651,10.72,15.326,15.968
		c11.339,10.51,24.857,20.65,40.141,29.756c15.274,9.127,32.255,17.321,50.469,24.23c2.287,0.839,4.583,1.68,6.888,2.526
		c2.306,0.775,4.62,1.553,6.943,2.334c4.659,1.523,9.317,3.225,14.107,4.559c4.775,1.391,9.569,2.87,14.428,4.2
		c4.884,1.249,9.793,2.503,14.722,3.763c19.808,4.695,40.261,8.28,60.903,10.588c41.289,4.783,83.305,3.729,122.097-1.698
		c5.306-0.755,10.545-1.618,15.722-2.557c-2.351,1.391-4.703,2.756-7.063,4.066c-11.588,6.742-23.759,12.513-35.946,17.823
		c-3.073,1.28-6.133,2.555-9.179,3.824c-3.096,1.155-6.176,2.304-9.237,3.446c-1.536,0.563-3.058,1.163-4.596,1.695
		c-1.546,0.507-3.087,1.011-4.623,1.514c-3.078,0.989-6.117,2.063-9.175,2.977c-24.458,7.314-48.194,11.855-68.829,13.888
		c-20.634,2.072-38.125,2.198-50.337,1.625c-1.532-0.046-2.982-0.089-4.347-0.13c-1.365-0.046-2.635-0.174-3.823-0.247
		c-2.378-0.167-4.4-0.31-6.04-0.425c-3.29-0.226-5.045-0.346-5.045-0.346s1.698,0.467,4.882,1.343
		c1.598,0.435,3.57,0.971,5.887,1.602c1.163,0.303,2.407,0.678,3.75,0.986c1.345,0.302,2.774,0.622,4.284,0.961
		c12.065,2.902,29.626,6.052,51.14,7.553c21.497,1.532,46.935,0.839,74.031-3.219c3.385-0.507,6.767-1.184,10.2-1.787
		c1.716-0.313,3.437-0.628,5.164-0.943c1.721-0.344,3.431-0.76,5.157-1.141c3.445-0.789,6.928-1.557,10.413-2.398
		c3.458-0.95,6.934-1.904,10.424-2.862c13.889-4.089,27.924-8.892,41.447-15.006c1.699-0.743,3.418-1.462,5.1-2.231l5.004-2.357
		c3.308-1.59,6.575-3.207,9.785-4.838c6.427-3.26,12.667-6.56,18.751-9.755c12.164-6.402,23.728-12.348,34.831-17.043
		c8.612-3.644,17.196-6.647,25.601-9.148c-3.415,3.287-6.738,6.591-9.974,9.83c-4.797,4.788-9.461,9.48-14.106,13.827
		c-4.637,4.353-9.275,8.359-14.085,12.137c-9.577,7.552-19.469,13.962-28.206,19.256c-8.748,5.29-16.336,9.486-21.66,12.424
		c-5.349,2.934-8.406,4.611-8.406,4.611s0.878-0.088,2.524-0.253c1.648-0.165,4.057-0.431,7.123-0.798
		c6.13-0.75,14.871-1.919,25.342-4.033c10.46-2.13,22.699-5.216,35.555-10.31c6.409-2.526,13.028-5.628,19.421-9.134
		c6.398-3.493,12.568-7.334,18.506-11.203c11.876-7.788,22.731-15.517,32.515-21.765c6.526-4.188,12.682-7.723,18.291-10.785
		c0.072,0.302,0.141,0.589,0.215,0.896c0.228,0.988,0.412,2.025,0.641,3.069c1.861,8.332,3.907,18.357,5.219,29.943
		c1.297,11.575,1.972,24.7,1.098,38.95c-0.432,7.124-1.306,14.505-2.503,22.087c-1.332,7.541-3.067,15.345-5.272,23.269
		c-4.578,15.806-10.993,32.16-19.633,48.266c-4.287,8.062-9.059,16.085-14.291,23.989c-5.245,7.897-10.977,15.651-17.096,23.228
		c-6.107,7.63-12.554,14.899-19.331,21.553c-6.786,6.649-13.957,12.675-21.604,17.663c-7.613,4.993-15.88,9.149-24.537,12.378
		c-8.665,3.213-17.732,5.414-26.886,6.706c-9.156,1.272-18.426,1.64-27.525,0.932c-4.543-0.352-9.072-0.909-13.496-1.682
		c-4.402-0.8-8.64-1.828-12.641-3.134c-3.999-1.308-7.753-2.901-11.193-4.795c-1.719-0.947-3.344-1.991-4.904-3.079
		c-1.473-1.096-2.935-2.224-4.264-3.512c-5.426-5.039-9.495-11.659-12.076-18.768c-2.593-7.121-3.631-14.741-3.33-22.044
		c0.306-7.315,1.997-14.333,4.839-20.483c5.753-12.21,16.12-21.167,26.784-25.948c5.315-2.446,10.642-4.229,15.735-5.106
		c0.634-0.131,1.263-0.261,1.884-0.39c0.626-0.096,1.25-0.154,1.866-0.233c1.237-0.151,2.447-0.298,3.63-0.443
		c1.187-0.079,2.351-0.096,3.489-0.149c1.137-0.025,2.256-0.145,3.333-0.049c4.332,0.102,8.206,0.563,11.531,1.214
		c1.648,0.379,3.198,0.679,4.594,1.04c1.374,0.438,2.622,0.836,3.74,1.192c0.558,0.185,1.099,0.33,1.581,0.518
		c0.477,0.204,0.921,0.393,1.333,0.569c0.827,0.352,1.524,0.648,2.084,0.886c1.127,0.477,1.709,0.723,1.709,0.723
		s-0.541-0.325-1.588-0.954c-0.527-0.316-1.18-0.709-1.958-1.177c-0.391-0.235-0.812-0.488-1.264-0.76
		c-0.46-0.257-0.977-0.475-1.513-0.739c-1.084-0.516-2.294-1.093-3.627-1.728c-1.366-0.56-2.897-1.079-4.543-1.697
		c-3.322-1.128-7.263-2.144-11.793-2.847c-1.127-0.246-2.302-0.279-3.506-0.408c-1.205-0.102-2.444-0.241-3.717-0.32
		c-1.276-0.01-2.581-0.02-3.916-0.031c-0.669,0-1.349-0.021-2.034-0.004c-0.682,0.051-1.372,0.102-2.069,0.154
		c-5.608,0.253-11.642,1.432-17.916,3.426c-0.781,0.266-1.569,0.533-2.363,0.803l-1.199,0.409c-0.398,0.144-0.779,0.333-1.172,0.499
		c-1.559,0.692-3.162,1.377-4.77,2.12c-1.553,0.861-3.129,1.734-4.726,2.619c-1.575,0.934-3.066,2.052-4.643,3.106
		c-0.387,0.273-0.791,0.529-1.169,0.819l-1.102,0.921c-0.739,0.62-1.482,1.244-2.23,1.872c-1.559,1.201-2.852,2.713-4.28,4.141
		c-2.852,2.863-5.359,6.243-7.602,9.867c-8.916,14.56-12.576,34.201-7.832,53.936c2.407,9.818,6.981,19.732,14.326,28.189
		c7.403,8.617,17.047,14.819,27.192,19.275c5.082,2.223,10.306,4.014,15.577,5.49c5.267,1.441,10.621,2.608,16.081,3.526
		c10.914,1.837,22.195,2.394,33.549,1.776c11.35-0.64,22.797-2.46,33.997-5.661c11.19-3.218,22.149-7.734,32.501-13.558
		c5.667-3.176,11.052-6.72,16.187-10.501c-18.908,22.152-37.423,39.601-52.64,47.969c8.252-1.699,16.053-4.04,23.438-6.875
		c-5.288,4.58-10.738,8.992-16.346,13.182c-12.274,9.178-25.283,17.32-38.755,24.01c-3.378,1.64-6.793,3.167-10.184,4.729
		c-1.725,0.699-3.446,1.396-5.161,2.092c-1.725,0.671-3.414,1.465-5.164,2.026c-1.739,0.61-3.473,1.219-5.201,1.826l-2.592,0.916
		c-0.864,0.292-1.729,0.539-2.593,0.812l-2.588,0.801l-2.593,0.72l-2.588,0.718c-0.865,0.21-1.729,0.42-2.59,0.63
		c-13.794,3.365-27.487,4.806-40.258,3.991c-6.385-0.401-12.532-1.361-18.343-2.838c-1.439-0.415-2.865-0.826-4.279-1.234
		c-1.411-0.426-2.764-0.96-4.139-1.425c-1.401-0.441-2.638-1.063-3.941-1.593c-0.646-0.274-1.288-0.547-1.928-0.818
		c-0.619-0.319-1.234-0.636-1.847-0.951c-2.503-1.185-4.79-2.656-7.091-4.024c-2.171-1.545-4.386-2.975-6.33-4.645
		c-2.058-1.548-3.82-3.322-5.641-4.962c-0.861-0.863-1.667-1.755-2.491-2.613c-0.41-0.432-0.818-0.861-1.221-1.286
		c-0.372-0.451-0.741-0.898-1.107-1.342c-5.939-7.073-9.849-14.321-12.092-20.631c-2.272-6.328-2.897-11.643-3.281-15.265
		c-0.093-3.653-0.142-5.602-0.142-5.602s-0.077,0.483-0.227,1.419c-0.138,0.939-0.401,2.334-0.64,4.179
		c-0.262,3.683-0.597,9.227,0.656,16.271c1.231,7.017,4.085,15.463,9.35,24.252c0.326,0.552,0.655,1.109,0.986,1.67
		c0.367,0.537,0.737,1.078,1.109,1.623c0.753,1.086,1.496,2.216,2.302,3.323c1.709,2.125,3.394,4.417,5.415,6.508
		c1.908,2.213,4.13,4.215,6.362,6.353c2.366,1.964,4.767,4.05,7.461,5.872c5.328,3.767,11.323,7.07,17.814,9.799
		c6.514,2.696,13.541,4.831,20.909,6.32c14.748,2.996,30.781,3.383,46.994,1.488c1.015-0.119,2.032-0.239,3.051-0.359
		c1.013-0.151,2.027-0.302,3.044-0.454c1.018-0.155,2.038-0.31,3.06-0.465c1.015-0.184,2.032-0.369,3.051-0.554
		c1.017-0.191,2.047-0.361,3.061-0.574l3.031-0.677c2.028-0.457,4.063-0.916,6.104-1.376c2.06-0.419,4.046-1.072,6.083-1.611
		c2.03-0.57,4.065-1.142,6.106-1.715c4.015-1.319,8.075-2.632,12.101-4.082c9.742-3.594,19.333-7.879,28.671-12.729
		c-0.329,0.385-0.651,0.768-0.981,1.153c-9.383,10.942-19.174,21.914-29.288,32.854c-2.455,2-4.932,3.991-7.451,5.963
		c-17.584,13.774-36.453,26.999-55.731,40.182c-19.246,13.186-38.893,26.425-57.833,40.381
		c-9.473,6.966-18.746,14.156-27.732,21.524c-8.996,7.352-17.656,14.983-25.873,22.85c-4.15,3.877-8.084,7.956-12.005,11.942
		c-1.91,2.052-3.811,4.095-5.702,6.128c-1.912,2.004-3.672,4.159-5.495,6.213c-0.902,1.037-1.801,2.072-2.698,3.104
		c-0.887,1.04-1.732,2.12-2.594,3.173c-1.706,2.125-3.438,4.202-5.086,6.331c-3.233,4.319-6.472,8.53-9.385,12.914
		c-6.025,8.607-11.268,17.526-15.74,26.344c-4.51,8.82-8.217,17.648-11.285,26.276c-6.132,17.268-9.422,33.839-10.665,48.6
		c-1.245,14.782-0.394,27.738,1.239,38.183c1.654,10.462,4.055,18.426,5.87,23.749c0.47,1.328,0.852,2.51,1.242,3.51
		c0.393,0.998,0.723,1.838,0.989,2.514c0.532,1.35,0.807,2.046,0.807,2.046s-0.191-0.725-0.56-2.13
		c-0.184-0.701-0.413-1.571-0.685-2.605c-0.268-1.034-0.51-2.251-0.822-3.614c-1.18-5.463-2.629-13.556-3.092-23.875
		c-0.446-10.308,0.127-22.839,2.824-36.764c2.694-13.911,7.456-29.208,14.845-44.788c3.695-7.784,7.975-15.665,12.968-23.436
		c4.973-7.793,10.547-15.48,16.903-22.939c3.076-3.805,6.471-7.444,9.829-11.167c1.714-1.835,3.511-3.621,5.273-5.448
		c0.892-0.905,1.76-1.832,2.675-2.725c0.924-0.885,1.85-1.772,2.779-2.662c1.877-1.761,3.671-3.606,5.634-5.322
		c1.931-1.738,3.872-3.484,5.823-5.24c4.008-3.407,7.993-6.887,12.214-10.197c8.338-6.714,17.094-13.224,26.211-19.52
		c4.23-2.932,8.527-5.831,12.877-8.705c-5.208,5.643-10.337,11.356-15.331,17.169c-17.674,20.54-33.785,42.324-46.699,65.056
		c-12.936,22.709-22.958,46.291-28.859,69.72c-2.95,11.708-4.912,23.314-6.013,34.619c-1.014,11.387-0.944,22.413-0.05,32.892
		c0.457,5.24,1.134,10.341,1.953,15.292c0.887,4.942,1.836,9.749,3.05,14.366c2.314,9.258,5.314,17.814,8.632,25.615
		c6.642,15.621,14.812,28.085,22.536,37.39c7.74,9.326,14.892,15.622,19.948,19.603c1.278,0.979,2.406,1.844,3.381,2.591
		c0.989,0.725,1.845,1.304,2.522,1.785c1.359,0.952,2.061,1.443,2.061,1.443s-0.647-0.562-1.902-1.65
		c-0.623-0.548-1.412-1.208-2.318-2.028c-0.888-0.837-1.918-1.807-3.083-2.905c-4.594-4.437-10.993-11.342-17.604-21.115
		c-6.603-9.752-13.272-22.487-18.181-37.917c-4.938-15.389-8.141-33.47-8.085-53.103c0.037-9.808,0.873-19.985,2.693-30.297
		c1.921-10.343,4.632-20.87,8.234-31.405c7.21-21.086,18.16-42.055,31.735-62.212c6.789-10.087,14.288-19.956,22.344-29.575
		c8.045-9.627,16.645-18.992,25.674-28.198c3.531-3.603,7.14-7.169,10.786-10.717c-5.375,9.382-10.333,18.896-14.768,28.489
		c-1.217,2.725-2.364,5.473-3.536,8.187c-0.581,1.359-1.161,2.715-1.74,4.068c-0.571,1.356-1.055,2.752-1.584,4.12
		c-1.032,2.746-2.059,5.478-3.081,8.196c-0.981,2.733-1.813,5.513-2.714,8.241c-0.868,2.746-1.805,5.425-2.537,8.213
		c-0.385,1.38-0.768,2.756-1.151,4.128c-0.343,1.381-0.686,2.758-1.027,4.131c-0.716,2.735-1.251,5.495-1.858,8.214
		c-0.559,2.731-1.049,5.456-1.535,8.158c-3.621,21.678-4.081,42.513-2.121,61.449c1.964,18.943,6.254,35.975,11.828,50.334
		c2.772,7.187,5.83,13.716,8.944,19.586c3.21,5.825,6.399,11.022,9.569,15.516c6.276,9.032,12.155,15.369,16.302,19.484
		c2.014,2.118,3.738,3.564,4.823,4.608c1.107,1.022,1.678,1.549,1.678,1.549s-0.508-0.59-1.493-1.733
		c-0.962-1.162-2.5-2.78-4.26-5.102c-3.639-4.52-8.721-11.393-13.865-20.821c-2.605-4.691-5.147-10.05-7.637-15.965
		c-2.396-5.961-4.663-12.51-6.593-19.622c-3.891-14.209-6.294-30.706-6.396-48.628c-0.101-17.915,2.201-37.262,7.343-56.877
		c0.675-2.444,1.35-4.902,2.087-7.356c0.784-2.442,1.492-4.917,2.373-7.355c0.422-1.223,0.845-2.45,1.269-3.68
		c0.459-1.217,0.919-2.437,1.38-3.661c0.875-2.452,1.978-4.882,2.995-7.335c1.053-2.444,2.029-4.926,3.151-7.367
		c1.157-2.425,2.32-4.862,3.489-7.31c0.594-1.218,1.14-2.458,1.775-3.666c0.641-1.204,1.283-2.411,1.927-3.62
		c1.294-2.414,2.554-4.852,3.881-7.269c10.911-19.219,24.013-38.011,38.972-55.94c9.969-12.12,20.721-23.879,31.879-35.407
		c-2.314,3.455-4.612,6.936-6.887,10.449c-8.605,13.453-16.738,27.47-24.277,41.941c-7.456,14.538-14.058,29.655-19.841,45.135
		c-2.857,7.787-5.347,15.736-7.601,23.755c-2.226,8.032-4.045,16.2-5.571,24.422c-1.47,8.242-2.5,16.577-3.162,24.939
		c-0.571,8.382-0.678,16.797-0.326,25.188c0.484,8.398,1.403,16.757,2.927,25c0.381,2.059,0.868,4.102,1.301,6.147l0.675,3.06
		l0.833,3.055c0.574,2.028,1.078,4.074,1.718,6.072c0.669,1.987,1.337,3.972,2.003,5.953c2.882,7.838,6.135,15.481,10.19,22.642
		l1.466,2.706l1.604,2.626c1.08,1.742,2.132,3.492,3.236,5.206c2.367,3.335,4.573,6.744,7.177,9.868
		c4.932,6.43,10.569,12.25,16.482,17.624c1.519,1.303,3.034,2.604,4.546,3.901c1.52,1.285,3.171,2.422,4.746,3.627
		c3.109,2.465,6.561,4.469,9.849,6.619c1.699,1,3.454,1.906,5.171,2.851l2.584,1.394c0.871,0.444,1.781,0.819,2.667,1.228
		c1.783,0.796,3.561,1.589,5.334,2.38c1.813,0.7,3.651,1.326,5.467,1.98l2.724,0.963c0.912,0.311,1.871,0.554,2.802,0.831
		c1.866,0.571,3.761,0.978,5.637,1.427c3.77,0.801,7.537,1.437,11.293,1.791c7.507,0.771,14.932,0.7,22.13-0.119
		c7.199-0.799,14.183-2.279,20.825-4.433c6.643-2.14,12.97-4.864,18.851-8.159c5.872-3.31,11.308-7.156,16.185-11.457
		c9.796-8.573,17.152-19.098,21.585-30.138c4.499-11.217,5.539-22.687,4.625-32.994c-0.925-10.356-3.844-19.645-7.571-27.64
		c-1.916-3.983-4.033-7.654-6.29-11.003c-2.324-3.306-4.68-6.355-7.2-9.006c-4.949-5.379-10.241-9.33-15.112-12.212
		c-4.894-2.879-9.429-4.611-13.152-5.74c-1.891-0.482-3.535-0.981-5.007-1.199c-1.459-0.264-2.676-0.522-3.68-0.594
		c-1.99-0.213-3.016-0.323-3.016-0.323s1.012,0.198,2.974,0.581c0.985,0.155,2.175,0.516,3.59,0.899
		c1.428,0.337,3.012,0.97,4.819,1.595c3.555,1.415,7.818,3.473,12.292,6.635c4.455,3.165,9.182,7.351,13.444,12.83
		c2.176,2.7,4.161,5.766,6.086,9.039c1.861,3.318,3.557,6.911,5.037,10.753c2.861,7.709,4.835,16.472,4.922,25.836
		c0.089,9.326-1.683,19.276-6.206,28.412c-4.541,9.17-11.502,17.666-20.403,24.33c-4.435,3.349-9.317,6.28-14.535,8.731
		c-5.227,2.436-10.802,4.356-16.582,5.762c-5.778,1.419-11.79,2.234-17.879,2.466c-3.044,0.147-6.11,0.055-9.177-0.103
		c-3.063-0.247-6.137-0.535-9.178-1.106c-6.111-1.055-12.06-2.75-17.827-5.326c-1.448-0.644-2.913-1.248-4.353-1.916
		c-1.404-0.75-2.812-1.503-4.225-2.258c-0.701-0.384-1.422-0.728-2.109-1.142l-2.036-1.298c-1.352-0.876-2.735-1.699-4.07-2.609
		c-2.575-1.982-5.289-3.759-7.71-5.989c-1.227-1.086-2.522-2.086-3.703-3.237c-1.175-1.155-2.353-2.312-3.533-3.472
		c-4.582-4.776-8.945-9.873-12.695-15.506c-2.004-2.713-3.643-5.71-5.447-8.586c-0.826-1.49-1.605-3.012-2.415-4.515l-1.202-2.262
		l-1.073-2.338c-3.013-6.159-5.299-12.702-7.294-19.307c-0.451-1.666-0.903-3.335-1.356-5.006c-0.429-1.674-0.727-3.382-1.103-5.069
		l-0.54-2.537l-0.406-2.599c-0.256-1.737-0.572-3.46-0.789-5.206c-0.868-6.987-1.231-14.076-1.249-21.204
		c0.113-7.144,0.597-14.32,1.474-21.502c0.97-7.181,2.236-14.357,3.893-21.497c1.715-7.131,3.668-14.235,5.992-21.263
		c2.354-7.019,4.9-13.995,7.788-20.864c5.888-13.752,12.468-27.245,19.843-40.318c7.474-13.034,15.475-25.753,23.961-38.11
		c5.4-7.764,10.921-15.408,16.537-22.95c0.03,3.063,0.169,6.135,0.408,9.2c0.198,3.094,0.645,6.182,1.054,9.258
		c0.549,3.067,1.057,6.13,1.821,9.146c0.346,1.514,0.702,3.023,1.155,4.507c0.435,1.49,0.84,2.979,1.311,4.458
		c0.503,1.472,0.976,2.956,1.515,4.408c0.559,1.442,1.082,2.9,1.681,4.318c2.348,5.696,5.114,11.136,8.201,16.291
		c6.181,10.314,13.618,19.479,21.756,27.525c8.122,8.018,17.135,15.118,26.767,20.841c4.836,2.846,9.776,5.454,14.928,7.572
		c5.123,2.153,10.363,3.978,15.729,5.263c2.647,0.732,5.386,1.158,8.058,1.68c2.731,0.331,5.409,0.786,8.139,0.889
		c5.426,0.434,10.808,0.199,16.129-0.425c1.344-0.205,2.683-0.41,4.018-0.613c1.332-0.203,2.615-0.581,3.912-0.869
		c2.607-0.543,5.073-1.446,7.54-2.245c1.234-0.399,2.4-0.958,3.59-1.432c1.174-0.514,2.378-0.939,3.492-1.551
		c2.259-1.153,4.514-2.25,6.598-3.613c4.286-2.509,8.097-5.602,11.678-8.755c3.446-3.333,6.663-6.778,9.281-10.611
		c5.326-7.547,8.909-16.012,10.116-24.448c0.112-1.057,0.224-2.106,0.334-3.15c0.092-1.048,0.249-2.051,0.23-3.133
		c0.015-1.064,0.047-2.118-0.035-3.157c-0.051-1.041-0.109-2.072-0.255-3.081c-0.479-4.054-1.492-7.853-2.837-11.333
		c-2.718-6.962-6.653-12.69-10.991-17.196c-2.17-2.257-4.42-4.243-6.712-5.948c-2.309-1.686-4.622-3.129-6.919-4.314
		c-4.61-2.345-9.087-3.703-13.061-4.321c-3.986-0.596-7.439-0.519-10.177-0.156c-2.74,0.381-4.781,0.929-6.125,1.367
		c-1.334,0.463-2.022,0.702-2.022,0.702s0.711-0.153,2.089-0.45c1.376-0.271,3.449-0.563,6.135-0.612
		c2.684-0.034,5.989,0.296,9.658,1.3c3.66,1.025,7.657,2.789,11.62,5.434c1.974,1.335,3.924,2.903,5.83,4.671
		c1.89,1.788,3.7,3.815,5.395,6.049c3.393,4.455,6.216,9.896,7.814,15.979c0.79,3.04,1.251,6.241,1.264,9.5
		c0.031,0.814-0.023,1.631-0.075,2.45c-0.021,0.82-0.149,1.636-0.251,2.455c-0.066,0.816-0.308,1.647-0.477,2.474
		c-0.181,0.825-0.363,1.656-0.546,2.492c-1.722,6.631-5.333,12.991-10.226,18.522c-2.397,2.814-5.303,5.274-8.309,7.63
		c-3.157,2.189-6.419,4.332-10.038,5.937c-1.748,0.91-3.633,1.561-5.485,2.282c-0.912,0.396-1.899,0.607-2.849,0.912
		c-0.964,0.263-1.902,0.618-2.887,0.814c-1.967,0.393-3.911,0.913-5.919,1.092c-0.999,0.106-1.987,0.312-2.992,0.347
		c-1,0.045-2.003,0.091-3.009,0.136c-4.075,0.039-8.268-0.185-12.412-0.966c-2.082-0.274-4.145-0.877-6.219-1.322
		c-2.052-0.644-4.127-1.153-6.156-1.955c-4.091-1.414-8.1-3.279-12.018-5.395c-3.938-2.076-7.725-4.582-11.418-7.251
		c-7.384-5.399-14.158-11.82-20.275-19.037c-6.091-7.2-11.381-15.083-15.467-23.42c-2.043-4.167-3.784-8.445-5.175-12.789
		c-0.36-1.083-0.646-2.183-0.978-3.27c-0.31-1.092-0.557-2.197-0.844-3.29c-0.256-1.105-0.459-2.234-0.697-3.346
		c-0.256-1.109-0.422-2.238-0.586-3.365c-0.399-2.24-0.576-4.52-0.825-6.779c-0.111-2.285-0.291-4.552-0.257-6.849
		c-0.017-4.578,0.235-9.178,0.879-13.79c2.403-18.462,9.576-36.826,18.623-54.354c3.353-6.488,6.959-12.874,10.726-19.178
		c8.156-9.986,16.132-19.88,23.823-29.737l0.799,2.991l0.917,3.384c0.33,1.122,0.729,2.228,1.094,3.342
		c0.767,2.218,1.457,4.46,2.31,6.653c0.894,2.177,1.788,4.356,2.684,6.537c3.86,8.607,8.416,16.956,13.922,24.696
		c5.458,7.745,11.759,14.905,18.809,21.297c7.052,6.382,14.883,11.989,23.378,16.421c4.253,2.198,8.624,4.177,13.161,5.72
		l1.688,0.596l1.718,0.522c1.151,0.336,2.271,0.709,3.442,1.002c2.348,0.583,4.682,1.164,7.042,1.544
		c2.342,0.478,4.713,0.692,7.054,0.991c2.36,0.146,4.697,0.382,7.041,0.354c4.674,0.11,9.317-0.271,13.866-0.929
		c4.556-0.636,9.005-1.797,13.326-3.147c2.14-0.788,4.282-1.479,6.337-2.438c1.03-0.465,2.07-0.877,3.073-1.391
		c0.998-0.519,1.994-1.036,2.987-1.552c3.912-2.177,7.644-4.613,10.994-7.464c0.835-0.723,1.702-1.356,2.49-2.152
		c0.794-0.772,1.585-1.542,2.374-2.309c0.809-0.747,1.484-1.602,2.208-2.408c0.7-0.825,1.444-1.61,2.086-2.464
		c5.251-6.754,8.99-14.143,11.212-21.664c2.193-7.532,2.961-15.17,2.345-22.426c-0.587-7.261-2.682-14.097-5.847-19.944
		c-3.208-5.95-7.476-10.644-11.94-14.243c-4.483-3.608-9.24-6.067-13.771-7.786c-2.242-0.929-4.527-1.445-6.651-2.032
		c-1.091-0.191-2.156-0.378-3.196-0.561c-0.52-0.079-1.024-0.197-1.537-0.238c-0.513-0.04-1.019-0.079-1.518-0.118
		c-7.991-0.683-14.231,0.874-18.136,2.423c-2.006,0.67-3.398,1.531-4.366,2.016c-0.956,0.507-1.449,0.768-1.449,0.768
		s0.53-0.181,1.558-0.531c1.031-0.327,2.506-0.947,4.555-1.289c3.993-0.906,10.117-1.411,17.28,0.34
		c0.446,0.104,0.897,0.209,1.355,0.315c0.456,0.106,0.902,0.29,1.361,0.434c0.907,0.306,1.837,0.619,2.789,0.94
		c1.833,0.835,3.776,1.583,5.631,2.715c3.753,2.12,7.532,4.874,10.82,8.452c3.279,3.565,6.115,7.886,7.882,12.77
		c1.789,4.91,2.626,10.39,2.262,16.003c-0.336,5.609-1.766,11.34-4.208,16.766c-2.464,5.42-6.044,10.474-10.382,14.72
		c-2.25,2.068-4.537,3.975-7.206,5.568c-2.591,1.68-5.441,3.015-8.364,4.178c-0.741,0.269-1.484,0.539-2.229,0.81
		c-0.742,0.272-1.529,0.452-2.288,0.687c-1.507,0.497-3.114,0.761-4.668,1.137c-3.188,0.537-6.41,0.982-9.703,1.012
		c-3.281,0.051-6.589-0.071-9.874-0.567c-1.646-0.165-3.271-0.564-4.9-0.842c-1.607-0.43-3.234-0.744-4.804-1.285
		c-1.595-0.445-3.135-1.05-4.68-1.62c-0.773-0.287-1.544-0.662-2.315-0.983l-1.157-0.497l-1.137-0.563
		c-3.051-1.432-5.982-3.199-8.834-5.092c-11.385-7.658-21.061-18.619-28.201-30.963c-3.597-6.152-6.458-12.709-8.861-19.365
		c-0.547-1.685-1.093-3.369-1.639-5.051c-0.519-1.688-0.894-3.424-1.359-5.121c-0.214-0.855-0.466-1.696-0.653-2.555l-0.501-2.593
		l-0.511-2.58c-0.183-0.855-0.349-1.713-0.442-2.586c-0.238-1.731-0.475-3.458-0.712-5.181c-0.211-1.724-0.278-3.464-0.437-5.183
		c-0.064-0.861-0.152-1.719-0.203-2.578l-0.025-1.488c0.659,0.191,1.337,0.355,2.042,0.479c-0.826-6.404-1.217-12.838-1.25-19.264
		c0.268-2.234,0.59-4.444,0.942-6.634c3.846-5.855,7.537-11.674,11.019-17.441c8.981-14.835,16.626-29.383,22.919-43.266
		c-0.214,13.818,2.73,24.513,11.304,27.631c2.808-95.481,140.414-131.989,182.538-278.02
		c42.124-146.031-19.658-168.497-64.59-238.704s-11.233-78.632-8.425-89.865c33.699,42.124,67.399,36.508,117.948,67.399
		c50.549,30.891,58.974,95.481,58.974,95.481S1464.871,920.975,1445.213,867.617z M1099.619,521.893
		c-4.537-20.164-5.442-39.869-3.577-56.538c0.382-4.197,1.13-8.138,1.779-11.944c0.42-1.877,0.83-3.705,1.228-5.483
		c0.099-0.448,0.198-0.892,0.296-1.333c0.123-0.431,0.245-0.859,0.366-1.284c0.244-0.853,0.485-1.692,0.721-2.519
		c0.863-3.359,2.034-6.354,3.021-9.205c0.46-1.445,1.095-2.727,1.62-4.006c0.544-1.275,1.063-2.491,1.556-3.646
		c0.235-0.499,0.47-0.979,0.703-1.45c-1.021,15.197-1.255,30.568-0.818,45.878c1.081,37.934,6.332,75.348,13.253,109.905
		c-4.03-9.206-7.79-18.401-11.061-27.548C1104.996,542.354,1101.867,531.942,1099.619,521.893z"/>
</g>
</svg>
